<?xml version="1.0" ?><!DOCTYPE svg  PUBLIC '-//W3C//DTD SVG 1.1//EN'  'http://www.w3.org/Graphics/SVG/1.1/DTD/svg11.dtd'><svg enable-background="new 0 0 128 128" id="Слой_1" version="1.1" viewBox="0 0 128 128" xml:space="preserve" xmlns="http://www.w3.org/2000/svg" xmlns:xlink="http://www.w3.org/1999/xlink"><g><g><g><g><path d="M43.7,124H20.8c-3,0-5.5-2.4-5.5-5.5V55.3c0-4.9,2-9.7,5.5-13.2l0,0c3.5-3.5,5.5-8.2,5.5-13.2V9.5h-1.1      V4h14.2v5.5h-1.1V29c0,4.9,2,9.7,5.5,13.2l0,0c3.5,3.5,5.5,8.2,5.5,13.2v63.2C49.2,121.6,46.7,124,43.7,124z" fill="#98D1A2"/></g><g><path d="M43.7,124H20.8c-3,0-5.5-2.4-5.5-5.5V55.3c0-4.9,2-9.7,5.5-13.2l0,0c3.5-3.5,5.5-8.2,5.5-13.2v-8.6h12      V29c0,4.9,2,9.7,5.5,13.2l0,0c3.5,3.5,5.5,8.2,5.5,13.2v63.2C49.2,121.6,46.7,124,43.7,124z" fill="#AE516E"/></g><g opacity="0.2"><g><path d="M43.7,42.2L43.7,42.2c-3.5-3.5-5.5-8.2-5.5-13.2V4h-4.4v25c0,4.9,0.9,9.7,4.4,13.2       c3.5,3.5,3.3,8.2,3.3,13.2v63.2c0,3-2.4,5.5-5.5,5.5h7.6c3,0,5.5-2.4,5.5-5.5V55.3C49.2,50.4,47.2,45.7,43.7,42.2z" fill="#62345B"/></g></g><g><rect fill="#CCCC63" height="32.7" width="33.8" x="15.3" y="69.4"/></g><g><path d="M49.2,104.2H15.3c-1.1,0-2-0.9-2-2s0.9-2,2-2h33.8c1.1,0,2,0.9,2,2S50.3,104.2,49.2,104.2z" fill="#62345B"/></g><g><path d="M49.2,71.4H15.3c-1.1,0-2-0.9-2-2s0.9-2,2-2h33.8c1.1,0,2,0.9,2,2S50.3,71.4,49.2,71.4z" fill="#62345B"/></g><g><path d="M43.7,126H20.8c-4.1,0-7.5-3.3-7.5-7.5V55.3c0-5.5,2.1-10.7,6-14.6c3.1-3.1,4.9-7.3,4.9-11.8V11.2      c-0.6-0.3-1.1-1-1.1-1.8V4c0-1.1,0.9-2,2-2h14.2c1.1,0,2,0.9,2,2v5.5c0,0.8-0.4,1.5-1.1,1.8V29c0,4.4,1.7,8.6,4.9,11.8      c3.9,3.9,6,9.1,6,14.6v63.2C51.2,122.7,47.8,126,43.7,126z M27.2,7.7c0.6,0.3,1.1,1,1.1,1.8V29c0,5.5-2.1,10.7-6,14.6      c-3.1,3.1-4.9,7.3-4.9,11.8v63.2c0,1.9,1.5,3.5,3.5,3.5h22.9c1.9,0,3.5-1.5,3.5-3.5V55.3c0-4.4-1.7-8.6-4.9-11.8      c-3.9-3.9-6-9.1-6-14.6V9.5c0-0.8,0.4-1.5,1.1-1.8V6H27.2V7.7z" fill="#62345B"/></g><g><path d="M39.3,11.5H25.2c-1.1,0-2-0.9-2-2s0.9-2,2-2h14.2c1.1,0,2,0.9,2,2S40.4,11.5,39.3,11.5z" fill="#62345B"/></g></g><g><circle cx="27.9" cy="85.8" fill="#FFFFFF" r="2.7"/></g><g><circle cx="36.6" cy="85.8" fill="#FFFFFF" r="2.7"/></g><g><circle cx="32.3" cy="91.3" fill="#FFFFFF" r="2.7"/></g><g><path d="M32.3,84.1c-0.3,0-0.5-0.2-0.5-0.5v-4.4c0-0.3,0.2-0.5,0.5-0.5s0.5,0.2,0.5,0.5v4.4     C32.8,83.9,32.5,84.1,32.3,84.1z" fill="#FFFFFF"/></g></g><g><g><g><path d="M66,76.3c0,12.9,10.4,23.3,23.3,23.3s23.3-10.4,23.3-23.3c0-6.9-3-13-7.7-17.3H73.7      C69,63.3,66,69.4,66,76.3z" fill="#EAF3FB"/></g></g><g><g><path d="M89.3,99.6c12.9,0,23.3-10.4,23.3-23.3H66C66,89.2,76.5,99.6,89.3,99.6z" fill="#AE516E"/></g></g><g opacity="0.15"><g><path d="M104.9,59h-7.2c4.7,4.3,7.7,10.4,7.7,17.3c0,11.7-8.6,21.3-19.7,23c1.2,0.2,2.4,0.3,3.6,0.3      c12.9,0,23.3-10.4,23.3-23.3C112.7,69.4,109.7,63.3,104.9,59z" fill="#62345B"/></g></g><g><g><path d="M89.3,101.6c-14,0-25.3-11.4-25.3-25.3c0-7.2,3.1-14,8.4-18.8c0.4-0.3,0.8-0.5,1.3-0.5h31.2      c0.5,0,1,0.2,1.3,0.5c5.3,4.8,8.4,11.6,8.4,18.8C114.7,90.3,103.3,101.6,89.3,101.6z M74.5,61c-4.1,4-6.5,9.5-6.5,15.3      c0,11.7,9.6,21.3,21.3,21.3s21.3-9.6,21.3-21.3c0-5.8-2.4-11.3-6.5-15.3H74.5z" fill="#62345B"/></g></g><g><path d="M89.3,126c-1.1,0-2-0.9-2-2v-23.7c0-1.1,0.9-2,2-2s2,0.9,2,2V124C91.3,125.1,90.5,126,89.3,126z" fill="#62345B"/></g><g><path d="M103.7,126H75c-1.1,0-2-0.9-2-2s0.9-2,2-2h28.7c1.1,0,2,0.9,2,2S104.8,126,103.7,126z" fill="#62345B"/></g><g opacity="0.8"><path d="M73,88c-0.7,0-1.3-0.3-1.7-1c-1.9-3.2-2.9-6.9-2.9-10.7c0-5.4,2-10.5,5.7-14.4c0.8-0.8,2-0.8,2.8-0.1     c0.8,0.8,0.8,2,0.1,2.8c-3,3.2-4.6,7.3-4.6,11.6c0,3.1,0.8,6.1,2.4,8.7c0.6,0.9,0.3,2.2-0.7,2.7C73.7,87.9,73.4,88,73,88z" fill="#FFFFFF"/></g></g></g></svg>